# xmcd
#
# Track frame offsets:
#	150
#	18822
#	38997
#	57122
#	77617
#	97957
#	124595
#	146225
#	165380
#
# Disc length: 2462 seconds
#
# Revision: 1
# Processed by: cddbd v1.5.1PL0 Copyright (c) Steve Scherf et al.
# Submitted via: audiograbber 1.83.01
#
DISCID=66099c09
DTITLE=Various Artist - Accion-en-La-Playa
DYEAR=1996
DGENRE=Folklore
TTITLE0=Guillermo Sosa - Baila Pandiao
TTITLE1=Guillermo Sosa - La chica del pelo largo
TTITLE2=Guillermo Sosa - Mi vida
TTITLE3=Guillermo Sosa - Matrimonio
TTITLE4=Guillermo Sosa - La elegida
TTITLE5=Juan Valdez - Memoria No1
TTITLE6=Guillermo Sosa - Fascinacion
TTITLE7=Pedro Polanco y Guillermo Sosa - Tu eres el amor
TTITLE8=Guillermo Sosa - Accion en el playa
EXTD=
EXTT0=
EXTT1=
EXTT2=
EXTT3=
EXTT4=
EXTT5=
EXTT6=
EXTT7=
EXTT8=
PLAYORDER=
